<svg width="12" height="14" viewBox="0 0 12 14" fill="none" xmlns="http://www.w3.org/2000/svg">
<path d="M3.78732 8.90232H0.821663C0.494244 8.90232 0.254297 8.78403 0.101822 8.54745C-0.0506363 8.31086 -0.0318877 8.08295 0.158068 7.86371L6.54481 0.34557C6.67603 0.195674 6.8435 0.0931913 7.0472 0.0381221C7.25091 -0.0169471 7.46275 -0.0123537 7.68269 0.0519025C7.90264 0.116145 8.06354 0.226018 8.16539 0.381522C8.26724 0.537039 8.30505 0.704533 8.27881 0.884005L7.54583 5.7207H11.1826C11.53 5.7207 11.775 5.84766 11.9174 6.10159C12.0599 6.35551 12.018 6.59209 11.7918 6.81133L4.73022 13.713C4.589 13.8497 4.41654 13.9381 4.21282 13.9784C4.00912 14.0187 3.81042 14.0026 3.61671 13.9302C3.423 13.8578 3.27272 13.7472 3.16589 13.5983C3.05903 13.4494 3.01872 13.2852 3.04496 13.1057L3.78732 8.90232Z" fill="url(#paint0_linear_8944_6118)"/>
<defs>
<linearGradient id="paint0_linear_8944_6118" x1="-1.05123e-07" y1="15.05" x2="15.7619" y2="-1.0872" gradientUnits="userSpaceOnUse">
<stop stop-color="#FF893C"/>
<stop offset="1" stop-color="#FFFFB2"/>
</linearGradient>
</defs>
</svg>
