<svg width="14" height="14" viewBox="0 0 14 14" fill="none" xmlns="http://www.w3.org/2000/svg">
<path d="M9.68363 9.53764L13.8105 7.31682C14.0632 7.18119 14.0632 6.81881 13.8105 6.68318L9.68363 4.46236C9.6215 4.42923 9.57077 4.37849 9.53764 4.31637L7.31682 0.189469C7.18119 -0.0631563 6.81881 -0.0631563 6.68318 0.189469L4.46236 4.31637C4.42923 4.37849 4.37849 4.42923 4.31637 4.46236L0.189469 6.68318C-0.0631563 6.81881 -0.0631563 7.18119 0.189469 7.31682L4.31637 9.53764C4.37849 9.57077 4.42923 9.6215 4.46236 9.68363L6.68318 13.8105C6.81881 14.0632 7.18119 14.0632 7.31682 13.8105L9.53764 9.68363C9.57077 9.6215 9.6215 9.57077 9.68363 9.53764Z" fill="url(#paint0_linear_8944_6149)"/>
<defs>
<linearGradient id="paint0_linear_8944_6149" x1="7" y1="12.9078" x2="15.75" y2="5.95" gradientUnits="userSpaceOnUse">
<stop stop-color="#FF893C"/>
<stop offset="1" stop-color="#FFFFB2"/>
</linearGradient>
</defs>
</svg>
