<svg width="135" height="50" viewBox="0 0 135 50" fill="none" xmlns="http://www.w3.org/2000/svg">
<rect x="15" width="105" height="50" fill="white"/>
<path d="M24.5846 31H18.3606V20.28H24.3606C26.4086 20.28 27.6406 21.224 27.6406 22.92C27.6406 24.184 26.9366 25.128 25.3046 25.32V25.432C27.1286 25.64 28.0246 26.632 28.0246 28.04C28.0246 29.88 26.7926 31 24.5846 31ZM20.0726 21.832V24.776H24.1206C25.3206 24.776 25.9286 24.312 25.9286 23.304C25.9286 22.296 25.3686 21.832 24.1686 21.832H20.0726ZM20.0726 26.2V29.448H24.3926C25.6726 29.448 26.2966 28.968 26.2966 27.8C26.2966 26.68 25.6566 26.2 24.3926 26.2H20.0726ZM32.4557 31.16C30.2158 31.16 29.1278 29.672 29.1278 27.832V23.048H30.8398V27.368C30.8398 28.856 31.5278 29.608 33.2078 29.608C34.9678 29.608 35.7838 28.712 35.7838 26.984V23.048H37.4958V31H35.9118V28.536H35.8158C35.5598 29.88 34.5038 31.16 32.4557 31.16ZM40.3456 33.72H39.2096V32.152H40.7616C41.4656 32.152 41.7536 31.96 41.9936 31.416L42.1856 31L38.2656 23.048H40.2016L42.2336 27.272L43.0176 29.176H43.1456L43.8976 27.256L45.7696 23.048H47.6736L43.5296 31.864C42.8736 33.288 41.9776 33.72 40.3456 33.72ZM59.3331 31H57.6211V28.824H50.7731V27.624L57.3331 20.28H59.3331V27.272H61.1731V28.824H59.3331V31ZM53.1571 27.272H57.6211V22.296H57.4931L53.1571 27.144V27.272ZM66.316 31.16C63.692 31.16 61.98 29.48 61.98 27.032C61.98 24.552 63.692 22.888 66.316 22.888C68.7 22.888 70.444 24.232 70.444 26.216V26.376H68.732V26.28C68.732 25.048 67.836 24.44 66.284 24.44C64.492 24.44 63.692 25.288 63.692 27.032C63.692 28.744 64.492 29.608 66.284 29.608C67.836 29.608 68.732 29 68.732 27.768V27.656H70.444V27.832C70.444 29.816 68.7 31.16 66.316 31.16ZM74.0579 31.16C72.4099 31.16 71.3699 30.392 71.3699 29.08C71.3699 27.848 72.3619 27.208 73.9299 27.032L77.5459 26.648V26.184C77.5459 24.872 76.9699 24.408 75.4499 24.408C73.9779 24.408 73.2579 24.888 73.2579 26.056V26.12H71.5459V26.056C71.5459 24.248 73.0499 22.888 75.5779 22.888C78.1059 22.888 79.2419 24.264 79.2419 26.168V31H77.6579V29.016H77.5459C77.1299 30.36 75.8659 31.16 74.0579 31.16ZM73.0979 28.968C73.0979 29.608 73.5299 29.912 74.5219 29.912C76.3299 29.912 77.5459 29.24 77.5459 27.672L74.4259 28.024C73.5299 28.136 73.0979 28.344 73.0979 28.968ZM84.5444 31.16C81.9844 31.16 80.5284 30.152 80.5284 28.312V28.264H82.2564V28.392C82.2564 29.432 82.8804 29.768 84.5444 29.768C86.0964 29.768 86.5604 29.448 86.5604 28.744C86.5604 28.088 86.1764 27.88 85.0404 27.72L82.8644 27.432C81.3604 27.24 80.4484 26.6 80.4484 25.272C80.4484 23.88 81.7124 22.888 84.1604 22.888C86.5924 22.888 88.0644 23.864 88.0644 25.752V25.8H86.3524V25.704C86.3524 24.76 85.8724 24.264 84.1124 24.264C82.6564 24.264 82.1444 24.584 82.1444 25.336C82.1444 25.96 82.4644 26.184 83.6644 26.344L85.5044 26.6C87.3924 26.84 88.2564 27.48 88.2564 28.792C88.2564 30.28 86.7844 31.16 84.5444 31.16ZM94.7191 31H92.8951C91.1831 31 90.1271 30.248 90.1271 28.312V24.488H88.7831V23.048H90.1271V21.304H91.8391V23.048H94.7191V24.488H91.8391V28.216C91.8391 29.192 92.2871 29.448 93.2791 29.448H94.7191V31Z" fill="black"/>
<path d="M115.74 22.1711C115.158 21.5896 113.72 20.1509 112.824 19.2574C112.663 19.0909 112.439 19 112.209 19H104.309C104.139 19 104 19.1393 104 19.3089V20.3872C104 20.5689 104.148 20.7173 104.33 20.7173H112.566C112.727 20.7173 112.805 20.9112 112.693 21.0232L104.185 29.531C104.067 29.6492 104 29.8067 104 29.9732V30.6668C104 30.8486 104.148 30.997 104.33 30.997H104.942C105.163 30.997 105.375 30.9091 105.529 30.7547L113.977 22.3044C114.089 22.1923 114.283 22.2711 114.283 22.4316V30.7032C114.283 30.8667 114.416 31 114.58 31H115.691C115.861 31 116 30.8637 116 30.6941V22.7951C116 22.5618 115.909 22.3377 115.743 22.1711H115.74Z" fill="black"/>
<path d="M0 12.0711V45C0 47.7614 2.23858 50 5 50H15V0H12.0711C10.745 0 9.47322 0.526783 8.53554 1.46446L1.46447 8.53553C0.526784 9.47322 0 10.745 0 12.0711Z" fill="white"/>
<path d="M135 37.9289L135 5C135 2.23857 132.761 -1.95703e-07 130 -4.37114e-07L120 -1.31134e-06L120 50L122.929 50C124.255 50 125.527 49.4732 126.464 48.5355L133.536 41.4645C134.473 40.5268 135 39.255 135 37.9289Z" fill="white"/>
</svg>
