<svg width="240" height="240" viewBox="0 0 240 240" fill="none" xmlns="http://www.w3.org/2000/svg">
<path d="M200 240L200 200M200 200L240 200M200 200L200 160M200 200L160 200M-7.15271e-06 40L40 40M40 40L40 1.35103e-05M40 40L40 80M40 40L80 40M40 240L40 200M40 200L2.06624e-06 200M40 200L40 160M40 200L80 200M40 160L80 160M40 160L40 120M40 160L0 160M80 160L80 200M80 160L120 160M80 160L80 120M80 200L120 200M80 200L80 240M120 160L120 200M120 160L160 160M120 160L120 120M120 200L160 200M120 200L120 240M160 160L160 200M160 160L200 160M160 160L160 120M160 200L160 240M200 160L200 120M200 160L240 160M40 120L80 120M40 120L-5.24537e-06 120M40 120L40 80M80 120L120 120M80 120L80 80M120 120L160 120M120 120L120 80M160 120L200 120M160 120L160 80M200 120L240 120M200 120L200 80M80 40L120 40M80 40L80 1.17619e-05M80 40L80 80M120 40L120 1.00134e-05M120 40L120 80M120 40L160 40M40 80L80 80M40 80L-3.49691e-06 80M80 80L120 80M120 80L160 80M160 80L200 80M160 80L160 40M200 80L200 40M200 80L240 80M160 40L200 40M160 40L160 8.26497e-06M200 40L200 6.51651e-06M200 40L240 40" stroke="url(#paint0_linear_10150_5192)" stroke-opacity="0.1"/>
<defs>
<linearGradient id="paint0_linear_10150_5192" x1="191.438" y1="191.437" x2="2.52624e-05" y2="-9.08375e-06" gradientUnits="userSpaceOnUse">
<stop stop-opacity="0"/>
<stop offset="1" stop-color="white"/>
</linearGradient>
</defs>
</svg>
