<svg width="420" height="390" viewBox="0 0 420 390" fill="none" xmlns="http://www.w3.org/2000/svg">
<g filter="url(#filter0_b_8944_6150)">
<rect width="420" height="390" rx="20" fill="white" fill-opacity="0.02"/>
<rect x="0.5" y="0.5" width="419" height="389" rx="19.5" stroke="white" stroke-opacity="0.05"/>
</g>
<rect x="68" y="250" width="284" height="110" fill="white" fill-opacity="0.04"/>
<path d="M30 278.863V350C30 355.523 34.4772 360 40 360H68V250H59.3944C56.7903 250 54.2889 251.016 52.4221 252.831L33.0277 271.695C31.092 273.578 30 276.163 30 278.863Z" fill="white" fill-opacity="0.04"/>
<path d="M390 331.136L390 260C390 254.477 385.523 250 380 250L352 250L352 360L360.606 360C363.21 360 365.711 358.984 367.578 357.168L386.972 338.305C388.908 336.422 390 333.837 390 331.136Z" fill="white" fill-opacity="0.04"/>
<path d="M169.663 326.16C167.151 326.16 165.759 324.48 165.759 322.032C165.759 319.552 167.135 317.888 169.551 317.888C171.439 317.888 172.511 318.864 172.831 320.208H172.927V315.28H174.655V326H173.071V323.712H172.959C172.623 325.296 171.455 326.16 169.663 326.16ZM167.503 322.032C167.503 323.936 168.479 324.576 170.191 324.576C171.887 324.576 172.927 323.776 172.927 322.112V321.984C172.927 320.288 171.935 319.456 170.159 319.456C168.495 319.456 167.503 320.112 167.503 322.032ZM180.253 326.16C177.645 326.16 175.933 324.688 175.933 322.032C175.933 319.552 177.629 317.888 180.221 317.888C182.685 317.888 184.365 319.248 184.365 321.664C184.365 321.952 184.349 322.176 184.301 322.416H177.549C177.613 323.952 178.365 324.768 180.205 324.768C181.869 324.768 182.557 324.224 182.557 323.28V323.152H184.285V323.296C184.285 324.992 182.621 326.16 180.253 326.16ZM180.189 319.248C178.429 319.248 177.661 320.032 177.565 321.456H182.733V321.424C182.733 319.952 181.885 319.248 180.189 319.248ZM187.387 326H185.659V315.28H187.387V326ZM192.988 326.16C190.38 326.16 188.668 324.688 188.668 322.032C188.668 319.552 190.364 317.888 192.956 317.888C195.42 317.888 197.1 319.248 197.1 321.664C197.1 321.952 197.084 322.176 197.036 322.416H190.284C190.348 323.952 191.1 324.768 192.94 324.768C194.604 324.768 195.292 324.224 195.292 323.28V323.152H197.02V323.296C197.02 324.992 195.356 326.16 192.988 326.16ZM192.924 319.248C191.164 319.248 190.396 320.032 190.299 321.456H195.468V321.424C195.468 319.952 194.62 319.248 192.924 319.248ZM201.85 325.28C199.482 325.28 198.074 323.792 198.074 321.584C198.074 319.376 199.546 317.888 201.962 317.888C203.626 317.888 204.874 318.64 205.162 320.032H205.258V318.048H206.842V325.072C206.842 327.744 205.178 328.88 202.57 328.88C200.218 328.88 198.586 327.776 198.586 325.856H200.298C200.298 327.008 200.97 327.44 202.666 327.44C204.474 327.44 205.13 326.944 205.13 325.168V323.216H205.018C204.73 324.416 203.658 325.28 201.85 325.28ZM199.818 321.584C199.818 323.216 200.778 323.792 202.41 323.792C204.17 323.792 205.13 323.056 205.13 321.648V321.424C205.13 320.08 204.138 319.392 202.458 319.392C200.794 319.392 199.818 319.952 199.818 321.584ZM210.777 326.16C209.129 326.16 208.089 325.392 208.089 324.08C208.089 322.848 209.081 322.208 210.649 322.032L214.265 321.648V321.184C214.265 319.872 213.689 319.408 212.169 319.408C210.697 319.408 209.977 319.888 209.977 321.056V321.12H208.265V321.056C208.265 319.248 209.769 317.888 212.297 317.888C214.825 317.888 215.961 319.264 215.961 321.168V326H214.377V324.016H214.265C213.849 325.36 212.585 326.16 210.777 326.16ZM209.817 323.968C209.817 324.608 210.249 324.912 211.241 324.912C213.049 324.912 214.265 324.24 214.265 322.672L211.145 323.024C210.249 323.136 209.817 323.344 209.817 323.968ZM222.719 326H220.895C219.183 326 218.127 325.248 218.127 323.312V319.488H216.783V318.048H218.127V316.304H219.839V318.048H222.719V319.488H219.839V323.216C219.839 324.192 220.287 324.448 221.279 324.448H222.719V326ZM225.528 317.12H223.8V315.28H225.528V317.12ZM225.528 326H223.8V318.048H225.528V326ZM231.192 326.16C228.552 326.16 226.776 324.48 226.776 322.032C226.776 319.552 228.552 317.888 231.192 317.888C233.848 317.888 235.624 319.552 235.624 322.032C235.624 324.48 233.848 326.16 231.192 326.16ZM231.192 324.624C233.128 324.624 233.928 323.712 233.928 322.032C233.928 320.336 233.128 319.408 231.192 319.408C229.272 319.408 228.472 320.336 228.472 322.032C228.472 323.712 229.272 324.624 231.192 324.624ZM238.606 326H236.878V318.048H238.462V320.512H238.574C238.814 319.168 239.87 317.888 241.886 317.888C244.094 317.888 245.182 319.376 245.182 321.216V326H243.454V321.68C243.454 320.192 242.782 319.44 241.134 319.44C239.39 319.44 238.606 320.336 238.606 322.064V326ZM250.482 326.16C247.922 326.16 246.466 325.152 246.466 323.312V323.264H248.194V323.392C248.194 324.432 248.818 324.768 250.482 324.768C252.034 324.768 252.498 324.448 252.498 323.744C252.498 323.088 252.114 322.88 250.978 322.72L248.802 322.432C247.298 322.24 246.386 321.6 246.386 320.272C246.386 318.88 247.65 317.888 250.098 317.888C252.53 317.888 254.002 318.864 254.002 320.752V320.8H252.29V320.704C252.29 319.76 251.81 319.264 250.05 319.264C248.594 319.264 248.082 319.584 248.082 320.336C248.082 320.96 248.402 321.184 249.602 321.344L251.442 321.6C253.33 321.84 254.194 322.48 254.194 323.792C254.194 325.28 252.722 326.16 250.482 326.16Z" fill="#646464"/>
<path d="M210.189 305.3C203.889 305.3 201.129 302.51 201.129 298.43V297.95H204.549V298.37C204.549 301.01 205.629 302.24 210.069 302.24C214.239 302.24 215.739 301.28 215.739 298.91C215.739 296.87 214.359 295.94 211.839 295.94H206.229V293.24H211.389C213.819 293.24 215.079 292.34 215.079 290.54C215.079 288.59 213.879 287.66 209.979 287.66C205.869 287.66 204.549 288.89 204.549 291.53V291.74H201.129V291.47C201.129 287.54 204.009 284.6 210.249 284.6C215.379 284.6 218.289 286.49 218.289 289.91C218.289 292.19 216.939 293.81 214.359 294.23V294.47C217.269 294.98 219.009 296.6 219.009 299.39C219.009 303.2 215.679 305.3 210.189 305.3Z" fill="white"/>
<circle cx="366" cy="274" r="3" fill="#FE69B5" fill-opacity="0.01"/>
<circle cx="366" cy="274" r="3" fill="url(#paint0_linear_8944_6150)"/>
<path d="M200 240L200 200M200 200L240 200M200 200L200 160M200 200L160 200M-7.15271e-06 40L40 40M40 40L40 1.35103e-05M40 40L40 80M40 40L80 40M40 240L40 200M40 200L2.06624e-06 200M40 200L40 160M40 200L80 200M40 160L80 160M40 160L40 120M40 160L0 160M80 160L80 200M80 160L120 160M80 160L80 120M80 200L120 200M80 200L80 240M120 160L120 200M120 160L160 160M120 160L120 120M120 200L160 200M120 200L120 240M160 160L160 200M160 160L200 160M160 160L160 120M160 200L160 240M200 160L200 120M200 160L240 160M40 120L80 120M40 120L-5.24537e-06 120M40 120L40 80M80 120L120 120M80 120L80 80M120 120L160 120M120 120L120 80M160 120L200 120M160 120L160 80M200 120L240 120M200 120L200 80M80 40L120 40M80 40L80 1.17619e-05M80 40L80 80M120 40L120 1.00134e-05M120 40L120 80M120 40L160 40M40 80L80 80M40 80L-3.49691e-06 80M80 80L120 80M120 80L160 80M160 80L200 80M160 80L160 40M200 80L200 40M200 80L240 80M160 40L200 40M160 40L160 8.26497e-06M200 40L200 6.51651e-06M200 40L240 40" stroke="url(#paint1_linear_8944_6150)" stroke-opacity="0.1"/>
<path d="M37.942 46H31.232V31.26H37.942C42.518 31.26 45.4 34.076 45.4 38.63C45.4 43.184 42.518 46 37.942 46ZM37.942 33.394H33.586V43.866H37.942C41.352 43.866 42.892 42.414 42.892 38.63C42.892 34.846 41.352 33.394 37.942 33.394ZM52.6703 46.22C49.0843 46.22 46.7303 44.196 46.7303 40.544C46.7303 37.134 49.0623 34.846 52.6263 34.846C56.0143 34.846 58.3243 36.716 58.3243 40.038C58.3243 40.434 58.3023 40.742 58.2363 41.072H48.9523C49.0403 43.184 50.0743 44.306 52.6043 44.306C54.8923 44.306 55.8383 43.558 55.8383 42.26V42.084H58.2143V42.282C58.2143 44.614 55.9263 46.22 52.6703 46.22ZM52.5823 36.716C50.1623 36.716 49.1063 37.794 48.9743 39.752H56.0803V39.708C56.0803 37.684 54.9143 36.716 52.5823 36.716ZM62.4799 46H60.1039V31.26H62.4799V46ZM70.1801 46.22C66.5941 46.22 64.2401 44.196 64.2401 40.544C64.2401 37.134 66.5721 34.846 70.1361 34.846C73.5241 34.846 75.8341 36.716 75.8341 40.038C75.8341 40.434 75.8121 40.742 75.7461 41.072H66.4621C66.5501 43.184 67.5841 44.306 70.1141 44.306C72.4021 44.306 73.3481 43.558 73.3481 42.26V42.084H75.7241V42.282C75.7241 44.614 73.4361 46.22 70.1801 46.22ZM70.0921 36.716C67.6721 36.716 66.6161 37.794 66.4841 39.752H73.5901V39.708C73.5901 37.684 72.4241 36.716 70.0921 36.716ZM82.3657 45.01C79.1097 45.01 77.1737 42.964 77.1737 39.928C77.1737 36.892 79.1977 34.846 82.5197 34.846C84.8077 34.846 86.5237 35.88 86.9197 37.794H87.0517V35.066H89.2297V44.724C89.2297 48.398 86.9417 49.96 83.3557 49.96C80.1217 49.96 77.8777 48.442 77.8777 45.802H80.2317C80.2317 47.386 81.1557 47.98 83.4877 47.98C85.9737 47.98 86.8757 47.298 86.8757 44.856V42.172H86.7217C86.3257 43.822 84.8517 45.01 82.3657 45.01ZM79.5717 39.928C79.5717 42.172 80.8917 42.964 83.1357 42.964C85.5557 42.964 86.8757 41.952 86.8757 40.016V39.708C86.8757 37.86 85.5117 36.914 83.2017 36.914C80.9137 36.914 79.5717 37.684 79.5717 39.928ZM94.6401 46.22C92.3741 46.22 90.9441 45.164 90.9441 43.36C90.9441 41.666 92.3081 40.786 94.4641 40.544L99.4361 40.016V39.378C99.4361 37.574 98.6441 36.936 96.5541 36.936C94.5301 36.936 93.5401 37.596 93.5401 39.202V39.29H91.1861V39.202C91.1861 36.716 93.2541 34.846 96.7301 34.846C100.206 34.846 101.768 36.738 101.768 39.356V46H99.5901V43.272H99.4361C98.8641 45.12 97.1261 46.22 94.6401 46.22ZM93.3201 43.206C93.3201 44.086 93.9141 44.504 95.2781 44.504C97.7641 44.504 99.4361 43.58 99.4361 41.424L95.1461 41.908C93.9141 42.062 93.3201 42.348 93.3201 43.206ZM111.061 46H108.553C106.199 46 104.747 44.966 104.747 42.304V37.046H102.899V35.066H104.747V32.668H107.101V35.066H111.061V37.046H107.101V42.172C107.101 43.514 107.717 43.866 109.081 43.866H111.061V46ZM118.047 46.22C114.461 46.22 112.107 44.196 112.107 40.544C112.107 37.134 114.439 34.846 118.003 34.846C121.391 34.846 123.701 36.716 123.701 40.038C123.701 40.434 123.679 40.742 123.613 41.072H114.329C114.417 43.184 115.451 44.306 117.981 44.306C120.269 44.306 121.215 43.558 121.215 42.26V42.084H123.591V42.282C123.591 44.614 121.303 46.22 118.047 46.22ZM117.959 36.716C115.539 36.716 114.483 37.794 114.351 39.752H121.457V39.708C121.457 37.684 120.291 36.716 117.959 36.716Z" fill="white"/>
<path d="M139.3 42.5H140.7V38.3H139.3V42.5ZM140 36.9C140.198 36.9 140.365 36.8329 140.499 36.6988C140.633 36.5646 140.7 36.3983 140.7 36.2C140.7 36.0017 140.633 35.8354 140.499 35.7013C140.365 35.5671 140.198 35.5 140 35.5C139.802 35.5 139.635 35.5671 139.501 35.7013C139.367 35.8354 139.3 36.0017 139.3 36.2C139.3 36.3983 139.367 36.5646 139.501 36.6988C139.635 36.8329 139.802 36.9 140 36.9ZM140 46C139.032 46 138.122 45.8162 137.27 45.4488C136.418 45.0813 135.678 44.5825 135.047 43.9525C134.418 43.3225 133.919 42.5817 133.551 41.73C133.184 40.8783 133 39.9683 133 39C133 38.0317 133.184 37.1217 133.551 36.27C133.919 35.4183 134.418 34.6775 135.047 34.0475C135.678 33.4175 136.418 32.9187 137.27 32.5512C138.122 32.1838 139.032 32 140 32C140.968 32 141.878 32.1838 142.73 32.5512C143.582 32.9187 144.323 33.4175 144.953 34.0475C145.583 34.6775 146.081 35.4183 146.449 36.27C146.816 37.1217 147 38.0317 147 39C147 39.9683 146.816 40.8783 146.449 41.73C146.081 42.5817 145.583 43.3225 144.953 43.9525C144.323 44.5825 143.582 45.0813 142.73 45.4488C141.878 45.8162 140.968 46 140 46Z" fill="#646464"/>
<path d="M69.96 192.3C63.66 192.3 60.9 189.51 60.9 185.43V184.95H64.32V185.37C64.32 188.01 65.4 189.24 69.84 189.24C74.01 189.24 75.51 188.28 75.51 185.91C75.51 183.87 74.13 182.94 71.61 182.94H66V180.24H71.16C73.59 180.24 74.85 179.34 74.85 177.54C74.85 175.59 73.65 174.66 69.75 174.66C65.64 174.66 64.32 175.89 64.32 178.53V178.74H60.9V178.47C60.9 174.54 63.78 171.6 70.02 171.6C75.15 171.6 78.06 173.49 78.06 176.91C78.06 179.19 76.71 180.81 74.13 181.23V181.47C77.04 181.98 78.78 183.6 78.78 186.39C78.78 190.2 75.45 192.3 69.96 192.3ZM87.851 192.03H84.191C84.191 182.7 88.901 178.23 93.011 175.05V174.81H79.841V171.9H96.461V174.51C90.671 179.76 87.851 184.08 87.851 192.03ZM98.6611 195.36H97.5811V193.38H98.5711C99.0811 193.38 99.3211 193.26 99.3211 192.63V192H97.5211V187.35H101.601V192.6C101.601 194.46 100.521 195.36 98.6611 195.36ZM120.36 192H103.53V189.87C103.53 186.15 105 184.29 109.14 182.88L113.94 181.23C116.34 180.36 117.18 179.55 117.18 177.78C117.18 175.65 115.8 174.57 112.2 174.57C108.18 174.57 106.68 175.98 106.68 178.62V178.98H103.5V178.68C103.5 174.96 106.05 171.6 112.32 171.6C118.02 171.6 120.42 174.3 120.42 177.84C120.42 181.14 118.29 182.88 114.75 183.96L110.52 185.25C107.82 186.18 106.89 187.14 106.89 189.42L111.75 189.09H120.36V192ZM131.878 192.3C125.818 192.3 122.218 188.34 122.218 181.95C122.218 175.59 125.818 171.6 131.878 171.6C137.938 171.6 141.538 175.59 141.538 181.95C141.538 188.34 137.938 192.3 131.878 192.3ZM131.878 189.18C136.168 189.18 138.088 186.96 138.088 181.95C138.088 176.94 136.168 174.72 131.878 174.72C127.588 174.72 125.638 176.94 125.638 181.95C125.638 186.96 127.588 189.18 131.878 189.18ZM153.001 192.3C146.941 192.3 143.341 188.34 143.341 181.95C143.341 175.59 146.941 171.6 153.001 171.6C159.061 171.6 162.661 175.59 162.661 181.95C162.661 188.34 159.061 192.3 153.001 192.3ZM153.001 189.18C157.291 189.18 159.211 186.96 159.211 181.95C159.211 176.94 157.291 174.72 153.001 174.72C148.711 174.72 146.761 176.94 146.761 181.95C146.761 186.96 148.711 189.18 153.001 189.18Z" fill="white"/>
<rect x="30" y="172" width="20" height="20" rx="10" fill="url(#paint2_linear_8944_6150)"/>
<path d="M36.128 219H34.416V209.832H30.192V208.28H40.336V209.832H36.128V219ZM45.4109 219.16C42.7709 219.16 40.9949 217.48 40.9949 215.032C40.9949 212.552 42.7709 210.888 45.4109 210.888C48.0669 210.888 49.8429 212.552 49.8429 215.032C49.8429 217.48 48.0669 219.16 45.4109 219.16ZM45.4109 217.624C47.3469 217.624 48.1469 216.712 48.1469 215.032C48.1469 213.336 47.3469 212.408 45.4109 212.408C43.4909 212.408 42.6909 213.336 42.6909 215.032C42.6909 216.712 43.4909 217.624 45.4109 217.624ZM56.3129 219H54.4889C52.7769 219 51.7209 218.248 51.7209 216.312V212.488H50.3769V211.048H51.7209V209.304H53.4329V211.048H56.3129V212.488H53.4329V216.216C53.4329 217.192 53.8809 217.448 54.8729 217.448H56.3129V219ZM59.7298 219.16C58.0818 219.16 57.0418 218.392 57.0418 217.08C57.0418 215.848 58.0338 215.208 59.6018 215.032L63.2178 214.648V214.184C63.2178 212.872 62.6418 212.408 61.1218 212.408C59.6498 212.408 58.9298 212.888 58.9298 214.056V214.12H57.2178V214.056C57.2178 212.248 58.7218 210.888 61.2498 210.888C63.7778 210.888 64.9138 212.264 64.9138 214.168V219H63.3298V217.016H63.2178C62.8018 218.36 61.5378 219.16 59.7298 219.16ZM58.7698 216.968C58.7698 217.608 59.2018 217.912 60.1938 217.912C62.0018 217.912 63.2178 217.24 63.2178 215.672L60.0978 216.024C59.2018 216.136 58.7698 216.344 58.7698 216.968ZM68.1843 219H66.4563V208.28H68.1843V219ZM80.5988 219H78.8868V216.824H72.0388V215.624L78.5988 208.28H80.5988V215.272H82.4388V216.824H80.5988V219ZM74.4228 215.272H78.8868V210.296H78.7588L74.4228 215.144V215.272ZM87.5816 219.16C84.9576 219.16 83.2456 217.48 83.2456 215.032C83.2456 212.552 84.9576 210.888 87.5816 210.888C89.9656 210.888 91.7096 212.232 91.7096 214.216V214.376H89.9976V214.28C89.9976 213.048 89.1016 212.44 87.5496 212.44C85.7576 212.44 84.9576 213.288 84.9576 215.032C84.9576 216.744 85.7576 217.608 87.5496 217.608C89.1016 217.608 89.9976 217 89.9976 215.768V215.656H91.7096V215.832C91.7096 217.816 89.9656 219.16 87.5816 219.16ZM95.3235 219.16C93.6755 219.16 92.6355 218.392 92.6355 217.08C92.6355 215.848 93.6275 215.208 95.1955 215.032L98.8115 214.648V214.184C98.8115 212.872 98.2355 212.408 96.7155 212.408C95.2435 212.408 94.5235 212.888 94.5235 214.056V214.12H92.8115V214.056C92.8115 212.248 94.3155 210.888 96.8435 210.888C99.3715 210.888 100.508 212.264 100.508 214.168V219H98.9235V217.016H98.8115C98.3955 218.36 97.1315 219.16 95.3235 219.16ZM94.3635 216.968C94.3635 217.608 94.7955 217.912 95.7875 217.912C97.5955 217.912 98.8115 217.24 98.8115 215.672L95.6915 216.024C94.7955 216.136 94.3635 216.344 94.3635 216.968ZM105.81 219.16C103.25 219.16 101.794 218.152 101.794 216.312V216.264H103.522V216.392C103.522 217.432 104.146 217.768 105.81 217.768C107.362 217.768 107.826 217.448 107.826 216.744C107.826 216.088 107.442 215.88 106.306 215.72L104.13 215.432C102.626 215.24 101.714 214.6 101.714 213.272C101.714 211.88 102.978 210.888 105.426 210.888C107.858 210.888 109.33 211.864 109.33 213.752V213.8H107.618V213.704C107.618 212.76 107.138 212.264 105.378 212.264C103.922 212.264 103.41 212.584 103.41 213.336C103.41 213.96 103.73 214.184 104.93 214.344L106.77 214.6C108.658 214.84 109.522 215.48 109.522 216.792C109.522 218.28 108.05 219.16 105.81 219.16ZM115.985 219H114.161C112.449 219 111.393 218.248 111.393 216.312V212.488H110.049V211.048H111.393V209.304H113.105V211.048H115.985V212.488H113.105V216.216C113.105 217.192 113.553 217.448 114.545 217.448H115.985V219ZM123.304 219.16C120.792 219.16 119.4 217.48 119.4 215.032C119.4 212.552 120.776 210.888 123.192 210.888C125.08 210.888 126.152 211.864 126.472 213.208H126.568V208.28H128.296V219H126.712V216.712H126.6C126.264 218.296 125.096 219.16 123.304 219.16ZM121.144 215.032C121.144 216.936 122.12 217.576 123.832 217.576C125.528 217.576 126.568 216.776 126.568 215.112V214.984C126.568 213.288 125.576 212.456 123.8 212.456C122.136 212.456 121.144 213.112 121.144 215.032ZM133.894 219.16C131.286 219.16 129.574 217.688 129.574 215.032C129.574 212.552 131.27 210.888 133.862 210.888C136.326 210.888 138.006 212.248 138.006 214.664C138.006 214.952 137.99 215.176 137.942 215.416H131.19C131.254 216.952 132.006 217.768 133.846 217.768C135.51 217.768 136.198 217.224 136.198 216.28V216.152H137.926V216.296C137.926 217.992 136.262 219.16 133.894 219.16ZM133.83 212.248C132.07 212.248 131.302 213.032 131.206 214.456H136.374V214.424C136.374 212.952 135.526 212.248 133.83 212.248ZM141.028 219H139.3V208.28H141.028V219ZM146.628 219.16C144.02 219.16 142.308 217.688 142.308 215.032C142.308 212.552 144.004 210.888 146.596 210.888C149.06 210.888 150.74 212.248 150.74 214.664C150.74 214.952 150.724 215.176 150.676 215.416H143.924C143.988 216.952 144.74 217.768 146.58 217.768C148.244 217.768 148.932 217.224 148.932 216.28V216.152H150.66V216.296C150.66 217.992 148.996 219.16 146.628 219.16ZM146.564 212.248C144.804 212.248 144.036 213.032 143.94 214.456H149.108V214.424C149.108 212.952 148.26 212.248 146.564 212.248ZM155.49 218.28C153.122 218.28 151.714 216.792 151.714 214.584C151.714 212.376 153.186 210.888 155.602 210.888C157.266 210.888 158.514 211.64 158.802 213.032H158.898V211.048H160.482V218.072C160.482 220.744 158.818 221.88 156.21 221.88C153.858 221.88 152.226 220.776 152.226 218.856H153.938C153.938 220.008 154.61 220.44 156.306 220.44C158.114 220.44 158.77 219.944 158.77 218.168V216.216H158.658C158.37 217.416 157.298 218.28 155.49 218.28ZM153.458 214.584C153.458 216.216 154.418 216.792 156.05 216.792C157.81 216.792 158.77 216.056 158.77 214.648V214.424C158.77 213.08 157.778 212.392 156.098 212.392C154.434 212.392 153.458 212.952 153.458 214.584ZM164.417 219.16C162.769 219.16 161.729 218.392 161.729 217.08C161.729 215.848 162.721 215.208 164.289 215.032L167.905 214.648V214.184C167.905 212.872 167.329 212.408 165.809 212.408C164.337 212.408 163.617 212.888 163.617 214.056V214.12H161.905V214.056C161.905 212.248 163.409 210.888 165.937 210.888C168.465 210.888 169.601 212.264 169.601 214.168V219H168.017V217.016H167.905C167.489 218.36 166.225 219.16 164.417 219.16ZM163.457 216.968C163.457 217.608 163.889 217.912 164.881 217.912C166.689 217.912 167.905 217.24 167.905 215.672L164.785 216.024C163.889 216.136 163.457 216.344 163.457 216.968ZM176.36 219H174.536C172.824 219 171.768 218.248 171.768 216.312V212.488H170.424V211.048H171.768V209.304H173.48V211.048H176.36V212.488H173.48V216.216C173.48 217.192 173.928 217.448 174.92 217.448H176.36V219ZM181.441 219.16C178.833 219.16 177.121 217.688 177.121 215.032C177.121 212.552 178.817 210.888 181.409 210.888C183.873 210.888 185.553 212.248 185.553 214.664C185.553 214.952 185.537 215.176 185.489 215.416H178.737C178.801 216.952 179.553 217.768 181.393 217.768C183.057 217.768 183.745 217.224 183.745 216.28V216.152H185.473V216.296C185.473 217.992 183.809 219.16 181.441 219.16ZM181.377 212.248C179.617 212.248 178.849 213.032 178.753 214.456H183.921V214.424C183.921 212.952 183.073 212.248 181.377 212.248ZM190.351 219.16C187.839 219.16 186.447 217.48 186.447 215.032C186.447 212.552 187.823 210.888 190.239 210.888C192.127 210.888 193.199 211.864 193.519 213.208H193.615V208.28H195.343V219H193.759V216.712H193.647C193.311 218.296 192.143 219.16 190.351 219.16ZM188.191 215.032C188.191 216.936 189.167 217.576 190.879 217.576C192.575 217.576 193.615 216.776 193.615 215.112V214.984C193.615 213.288 192.623 212.456 190.847 212.456C189.183 212.456 188.191 213.112 188.191 215.032Z" fill="#646464"/>
<rect x="365" y="20" width="20" height="50" fill="white" fill-opacity="0.04"/>
<path d="M350 32.0711V65C350 67.7614 352.239 70 355 70H365V20H362.071C360.745 20 359.473 20.5268 358.536 21.4645L351.464 28.5355C350.527 29.4732 350 30.745 350 32.0711Z" fill="white" fill-opacity="0.04"/>
<path d="M400 57.9289L400 25C400 22.2386 397.761 20 395 20L385 20L385 70L387.929 70C389.255 70 390.527 69.4732 391.464 68.5355L398.536 61.4645C399.473 60.5268 400 59.255 400 57.9289Z" fill="white" fill-opacity="0.04"/>
<path d="M380.74 42.1711C380.158 41.5896 378.72 40.1509 377.824 39.2574C377.663 39.0909 377.439 39 377.209 39H369.309C369.139 39 369 39.1393 369 39.3089V40.3872C369 40.5689 369.148 40.7173 369.33 40.7173H377.566C377.727 40.7173 377.805 40.9112 377.693 41.0232L369.185 49.531C369.067 49.6492 369 49.8067 369 49.9732V50.6668C369 50.8486 369.148 50.997 369.33 50.997H369.942C370.163 50.997 370.375 50.9091 370.529 50.7547L378.977 42.3044C379.089 42.1923 379.283 42.2711 379.283 42.4316V50.7032C379.283 50.8667 379.416 51 379.58 51H380.691C380.861 51 381 50.8637 381 50.6941V42.7951C381 42.5618 380.909 42.3377 380.743 42.1711H380.74Z" fill="white"/>
<defs>
<filter id="filter0_b_8944_6150" x="-30" y="-30" width="480" height="450" filterUnits="userSpaceOnUse" color-interpolation-filters="sRGB">
<feFlood flood-opacity="0" result="BackgroundImageFix"/>
<feGaussianBlur in="BackgroundImageFix" stdDeviation="15"/>
<feComposite in2="SourceAlpha" operator="in" result="effect1_backgroundBlur_8944_6150"/>
<feBlend mode="normal" in="SourceGraphic" in2="effect1_backgroundBlur_8944_6150" result="shape"/>
</filter>
<linearGradient id="paint0_linear_8944_6150" x1="363" y1="277" x2="369" y2="271" gradientUnits="userSpaceOnUse">
<stop stop-color="#FF893C"/>
<stop offset="1" stop-color="#FFFFB2"/>
</linearGradient>
<linearGradient id="paint1_linear_8944_6150" x1="191.438" y1="191.437" x2="2.52624e-05" y2="-9.08375e-06" gradientUnits="userSpaceOnUse">
<stop stop-opacity="0"/>
<stop offset="1" stop-color="white"/>
</linearGradient>
<linearGradient id="paint2_linear_8944_6150" x1="40" y1="190.44" x2="50" y2="172" gradientUnits="userSpaceOnUse">
<stop stop-color="#FF893C"/>
<stop offset="1" stop-color="#FFFFB2"/>
</linearGradient>
</defs>
</svg>
