<svg width="50" height="50" viewBox="0 0 50 50" fill="none" xmlns="http://www.w3.org/2000/svg">
<rect x="15" width="20" height="50" fill="white" fill-opacity="0.04"/>
<path d="M0 12.0711V45C0 47.7614 2.23858 50 5 50H15V0H12.0711C10.745 0 9.47322 0.526783 8.53554 1.46446L1.46447 8.53553C0.526784 9.47322 0 10.745 0 12.0711Z" fill="white" fill-opacity="0.04"/>
<path d="M50 37.9289L50 5C50 2.23857 47.7614 -1.95703e-07 45 -4.37114e-07L35 -1.31134e-06L35 50L37.9289 50C39.255 50 40.5268 49.4732 41.4645 48.5355L48.5355 41.4645C49.4732 40.5268 50 39.255 50 37.9289Z" fill="white" fill-opacity="0.04"/>
<path d="M30.7396 22.1711C30.1582 21.5896 28.7199 20.1509 27.8236 19.2574C27.6631 19.0909 27.4391 19 27.2089 19H19.3089C19.1393 19 19 19.1393 19 19.3089V20.3872C19 20.5689 19.1484 20.7173 19.3301 20.7173H27.5662C27.7267 20.7173 27.8055 20.9112 27.6934 21.0232L19.1847 29.531C19.0666 29.6492 19 29.8067 19 29.9732V30.6668C19 30.8486 19.1484 30.997 19.3301 30.997H19.9417C20.1628 30.997 20.3747 30.9091 20.5291 30.7547L28.9773 22.3044C29.0893 22.1923 29.2831 22.2711 29.2831 22.4316V30.7032C29.2831 30.8667 29.4164 31 29.5799 31H30.6911C30.8607 31 31 30.8637 31 30.6941V22.7951C31 22.5618 30.9092 22.3377 30.7426 22.1711H30.7396Z" fill="white"/>
</svg>
