<svg width="361" height="90" viewBox="0 0 361 90" fill="none" xmlns="http://www.w3.org/2000/svg">
<g opacity="0.05">
<path d="M29.9999 60V59.5H30.4999V60H29.9999ZM29.4999 90V60H30.4999V90H29.4999ZM29.9999 60.5H0V59.5H29.9999V60.5Z" fill="white"/>
<path d="M29.9999 60V59.5H30.4999V60H29.9999ZM29.4999 90V60H30.4999V90H29.4999ZM29.9999 60.5H0V59.5H29.9999V60.5Z" fill="url(#paint0_linear_10150_5194)" fill-opacity="0.1"/>
<path d="M59.9999 60V59.5H60.4999V60H59.9999ZM30 60H29.5V59.5H30V60ZM59.4999 90V60H60.4999V90H59.4999ZM59.9999 60.5H30V59.5H59.9999V60.5ZM30.5 60V90H29.5V60H30.5Z" fill="white"/>
<path d="M59.9999 60V59.5H60.4999V60H59.9999ZM30 60H29.5V59.5H30V60ZM59.4999 90V60H60.4999V90H59.4999ZM59.9999 60.5H30V59.5H59.9999V60.5ZM30.5 60V90H29.5V60H30.5Z" fill="url(#paint1_linear_10150_5194)" fill-opacity="0.1"/>
<path d="M89.9999 60V59.5H90.4999V60H89.9999ZM60 60H59.5V59.5H60V60ZM89.4999 90V60H90.4999V90H89.4999ZM89.9999 60.5H60V59.5H89.9999V60.5ZM60.5 60V90H59.5V60H60.5Z" fill="white"/>
<path d="M89.9999 60V59.5H90.4999V60H89.9999ZM60 60H59.5V59.5H60V60ZM89.4999 90V60H90.4999V90H89.4999ZM89.9999 60.5H60V59.5H89.9999V60.5ZM60.5 60V90H59.5V60H60.5Z" fill="url(#paint2_linear_10150_5194)" fill-opacity="0.1"/>
<path d="M120 60V59.5H120.5V60H120ZM90 60H89.5V59.5H90V60ZM119.5 90V60H120.5V90H119.5ZM120 60.5H90V59.5H120V60.5ZM90.5 60V90H89.5V60H90.5Z" fill="white"/>
<path d="M120 60V59.5H120.5V60H120ZM90 60H89.5V59.5H90V60ZM119.5 90V60H120.5V90H119.5ZM120 60.5H90V59.5H120V60.5ZM90.5 60V90H89.5V60H90.5Z" fill="url(#paint3_linear_10150_5194)" fill-opacity="0.1"/>
<path d="M149.998 60V59.5H150.498V60H149.998ZM119.998 60H119.498V59.5H119.998V60ZM149.498 90V60H150.498V90H149.498ZM149.998 60.5H119.998V59.5H149.998V60.5ZM120.498 60V90H119.498V60H120.498Z" fill="white"/>
<path d="M149.998 60V59.5H150.498V60H149.998ZM119.998 60H119.498V59.5H119.998V60ZM149.498 90V60H150.498V90H149.498ZM149.998 60.5H119.998V59.5H149.998V60.5ZM120.498 60V90H119.498V60H120.498Z" fill="url(#paint4_linear_10150_5194)" fill-opacity="0.1"/>
<path d="M180 60V59.5H180.5V60H180ZM150 60H149.5V59.5H150V60ZM179.5 90V60H180.5V90H179.5ZM180 60.5H150V59.5H180V60.5ZM150.5 60V90H149.5V60H150.5Z" fill="white"/>
<path d="M180 60V59.5H180.5V60H180ZM150 60H149.5V59.5H150V60ZM179.5 90V60H180.5V90H179.5ZM180 60.5H150V59.5H180V60.5ZM150.5 60V90H149.5V60H150.5Z" fill="url(#paint5_linear_10150_5194)" fill-opacity="0.1"/>
<path d="M210 60V59.5H210.5V60H210ZM180 60H179.5V59.5H180V60ZM209.5 90V60H210.5V90H209.5ZM210 60.5H180V59.5H210V60.5ZM180.5 60V90H179.5V60H180.5Z" fill="white"/>
<path d="M210 60V59.5H210.5V60H210ZM180 60H179.5V59.5H180V60ZM209.5 90V60H210.5V90H209.5ZM210 60.5H180V59.5H210V60.5ZM180.5 60V90H179.5V60H180.5Z" fill="url(#paint6_linear_10150_5194)" fill-opacity="0.1"/>
<path d="M239.998 60V59.5H240.498V60H239.998ZM209.998 60H209.498V59.5H209.998V60ZM239.498 90V60H240.498V90H239.498ZM239.998 60.5H209.998V59.5H239.998V60.5ZM210.498 60V90H209.498V60H210.498Z" fill="white"/>
<path d="M239.998 60V59.5H240.498V60H239.998ZM209.998 60H209.498V59.5H209.998V60ZM239.498 90V60H240.498V90H239.498ZM239.998 60.5H209.998V59.5H239.998V60.5ZM210.498 60V90H209.498V60H210.498Z" fill="url(#paint7_linear_10150_5194)" fill-opacity="0.1"/>
<path d="M270 60V59.5H270.5V60H270ZM240 60H239.5V59.5H240V60ZM269.5 90V60H270.5V90H269.5ZM270 60.5H240V59.5H270V60.5ZM240.5 60V90H239.5V60H240.5Z" fill="white"/>
<path d="M270 60V59.5H270.5V60H270ZM240 60H239.5V59.5H240V60ZM269.5 90V60H270.5V90H269.5ZM270 60.5H240V59.5H270V60.5ZM240.5 60V90H239.5V60H240.5Z" fill="url(#paint8_linear_10150_5194)" fill-opacity="0.1"/>
<path d="M300 60V59.5H300.5V60H300ZM270 60H269.5V59.5H270V60ZM299.5 90V60H300.5V90H299.5ZM300 60.5H270V59.5H300V60.5ZM270.5 60V90H269.5V60H270.5Z" fill="white"/>
<path d="M300 60V59.5H300.5V60H300ZM270 60H269.5V59.5H270V60ZM299.5 90V60H300.5V90H299.5ZM300 60.5H270V59.5H300V60.5ZM270.5 60V90H269.5V60H270.5Z" fill="url(#paint9_linear_10150_5194)" fill-opacity="0.1"/>
<path d="M329.998 60V59.5H330.498V60H329.998ZM299.998 60H299.498V59.5H299.998V60ZM329.498 90V60H330.498V90H329.498ZM329.998 60.5H299.998V59.5H329.998V60.5ZM300.498 60V90H299.498V60H300.498Z" fill="white"/>
<path d="M329.998 60V59.5H330.498V60H329.998ZM299.998 60H299.498V59.5H299.998V60ZM329.498 90V60H330.498V90H329.498ZM329.998 60.5H299.998V59.5H329.998V60.5ZM300.498 60V90H299.498V60H300.498Z" fill="url(#paint10_linear_10150_5194)" fill-opacity="0.1"/>
<path d="M360 60V59.5H360.5V60H360ZM330 60H329.5V59.5H330V60ZM359.5 90V60H360.5V90H359.5ZM360 60.5H330V59.5H360V60.5ZM330.5 60V90H329.5V60H330.5Z" fill="white"/>
<path d="M360 60V59.5H360.5V60H360ZM330 60H329.5V59.5H330V60ZM359.5 90V60H360.5V90H359.5ZM360 60.5H330V59.5H360V60.5ZM330.5 60V90H329.5V60H330.5Z" fill="url(#paint11_linear_10150_5194)" fill-opacity="0.1"/>
<path d="M29.9999 60H30.4999V60.5H29.9999V60ZM29.9999 30V29.5H30.4999V30H29.9999ZM0 59.5H29.9999V60.5H0V59.5ZM29.4999 60V30H30.4999V60H29.4999ZM29.9999 30.5H0V29.5H29.9999V30.5Z" fill="white"/>
<path d="M29.9999 60H30.4999V60.5H29.9999V60ZM29.9999 30V29.5H30.4999V30H29.9999ZM0 59.5H29.9999V60.5H0V59.5ZM29.4999 60V30H30.4999V60H29.4999ZM29.9999 30.5H0V29.5H29.9999V30.5Z" fill="url(#paint12_linear_10150_5194)" fill-opacity="0.1"/>
<path d="M29.4999 30V0H30.4999V30H29.4999Z" fill="white"/>
<path d="M29.4999 30V0H30.4999V30H29.4999Z" fill="url(#paint13_linear_10150_5194)" fill-opacity="0.1"/>
<rect width="29.9999" height="30" transform="matrix(1 0 0 -1 30 60)" stroke="white"/>
<rect width="29.9999" height="30" transform="matrix(1 0 0 -1 30 60)" stroke="url(#paint14_linear_10150_5194)" stroke-opacity="0.1"/>
<path d="M59.4999 30V0H60.4999V30H59.4999ZM30.5 0V30H29.5V0H30.5Z" fill="white"/>
<path d="M59.4999 30V0H60.4999V30H59.4999ZM30.5 0V30H29.5V0H30.5Z" fill="url(#paint15_linear_10150_5194)" fill-opacity="0.1"/>
<rect width="29.9999" height="30" transform="matrix(1 0 0 -1 60 60)" stroke="white"/>
<rect width="29.9999" height="30" transform="matrix(1 0 0 -1 60 60)" stroke="url(#paint16_linear_10150_5194)" stroke-opacity="0.1"/>
<path d="M89.4999 30V0H90.4999V30H89.4999ZM60.5 0V30H59.5V0H60.5Z" fill="white"/>
<path d="M89.4999 30V0H90.4999V30H89.4999ZM60.5 0V30H59.5V0H60.5Z" fill="url(#paint17_linear_10150_5194)" fill-opacity="0.1"/>
<rect width="29.9999" height="30" transform="matrix(1 0 0 -1 90 60)" stroke="white"/>
<rect width="29.9999" height="30" transform="matrix(1 0 0 -1 90 60)" stroke="url(#paint18_linear_10150_5194)" stroke-opacity="0.1"/>
<path d="M119.5 30V0H120.5V30H119.5ZM90.5 0V30H89.5V0H90.5Z" fill="white"/>
<path d="M119.5 30V0H120.5V30H119.5ZM90.5 0V30H89.5V0H90.5Z" fill="url(#paint19_linear_10150_5194)" fill-opacity="0.1"/>
<rect width="29.9999" height="30" transform="matrix(1 0 0 -1 119.998 60)" stroke="white"/>
<rect width="29.9999" height="30" transform="matrix(1 0 0 -1 119.998 60)" stroke="url(#paint20_linear_10150_5194)" stroke-opacity="0.1"/>
<path d="M119.998 30V30.5H119.498V30H119.998ZM149.998 30H150.498V30.5H149.998V30ZM119.998 29.5H149.998V30.5H119.998V29.5ZM149.498 30V0H150.498V30H149.498ZM120.498 0V30H119.498V0H120.498Z" fill="white"/>
<path d="M119.998 30V30.5H119.498V30H119.998ZM149.998 30H150.498V30.5H149.998V30ZM119.998 29.5H149.998V30.5H119.998V29.5ZM149.498 30V0H150.498V30H149.498ZM120.498 0V30H119.498V0H120.498Z" fill="url(#paint21_linear_10150_5194)" fill-opacity="0.1"/>
<rect width="29.9999" height="30" transform="matrix(1 0 0 -1 150 60)" stroke="white"/>
<rect width="29.9999" height="30" transform="matrix(1 0 0 -1 150 60)" stroke="url(#paint22_linear_10150_5194)" stroke-opacity="0.1"/>
<path d="M179.5 30V0H180.5V30H179.5ZM150.5 0V30H149.5V0H150.5Z" fill="white"/>
<path d="M179.5 30V0H180.5V30H179.5ZM150.5 0V30H149.5V0H150.5Z" fill="url(#paint23_linear_10150_5194)" fill-opacity="0.1"/>
<rect width="29.9999" height="30" transform="matrix(1 0 0 -1 180 60)" stroke="white"/>
<rect width="29.9999" height="30" transform="matrix(1 0 0 -1 180 60)" stroke="url(#paint24_linear_10150_5194)" stroke-opacity="0.1"/>
<path d="M209.5 30V0H210.5V30H209.5ZM180.5 0V30H179.5V0H180.5Z" fill="white"/>
<path d="M209.5 30V0H210.5V30H209.5ZM180.5 0V30H179.5V0H180.5Z" fill="url(#paint25_linear_10150_5194)" fill-opacity="0.1"/>
<rect width="29.9999" height="30" transform="matrix(1 0 0 -1 209.998 60)" stroke="white"/>
<rect width="29.9999" height="30" transform="matrix(1 0 0 -1 209.998 60)" stroke="url(#paint26_linear_10150_5194)" stroke-opacity="0.1"/>
<path d="M239.498 30V0H240.498V30H239.498ZM210.498 0V30H209.498V0H210.498Z" fill="white"/>
<path d="M239.498 30V0H240.498V30H239.498ZM210.498 0V30H209.498V0H210.498Z" fill="url(#paint27_linear_10150_5194)" fill-opacity="0.1"/>
<rect width="29.9999" height="30" transform="matrix(1 0 0 -1 240 60)" stroke="white"/>
<rect width="29.9999" height="30" transform="matrix(1 0 0 -1 240 60)" stroke="url(#paint28_linear_10150_5194)" stroke-opacity="0.1"/>
<path d="M269.5 30V0H270.5V30H269.5ZM240.5 0V30H239.5V0H240.5Z" fill="white"/>
<path d="M269.5 30V0H270.5V30H269.5ZM240.5 0V30H239.5V0H240.5Z" fill="url(#paint29_linear_10150_5194)" fill-opacity="0.1"/>
<rect width="29.9999" height="30" transform="matrix(1 0 0 -1 270 60)" stroke="white"/>
<rect width="29.9999" height="30" transform="matrix(1 0 0 -1 270 60)" stroke="url(#paint30_linear_10150_5194)" stroke-opacity="0.1"/>
<path d="M299.5 30V0H300.5V30H299.5ZM270.5 0V30H269.5V0H270.5Z" fill="white"/>
<path d="M299.5 30V0H300.5V30H299.5ZM270.5 0V30H269.5V0H270.5Z" fill="url(#paint31_linear_10150_5194)" fill-opacity="0.1"/>
<rect width="29.9999" height="30" transform="matrix(1 0 0 -1 299.998 60)" stroke="white"/>
<rect width="29.9999" height="30" transform="matrix(1 0 0 -1 299.998 60)" stroke="url(#paint32_linear_10150_5194)" stroke-opacity="0.1"/>
<path d="M329.498 30V0H330.498V30H329.498ZM300.498 0V30H299.498V0H300.498Z" fill="white"/>
<path d="M329.498 30V0H330.498V30H329.498ZM300.498 0V30H299.498V0H300.498Z" fill="url(#paint33_linear_10150_5194)" fill-opacity="0.1"/>
<rect width="29.9999" height="30" transform="matrix(1 0 0 -1 330 60)" stroke="white"/>
<rect width="29.9999" height="30" transform="matrix(1 0 0 -1 330 60)" stroke="url(#paint34_linear_10150_5194)" stroke-opacity="0.1"/>
<path d="M359.5 30V0H360.5V30H359.5ZM330.5 0V30H329.5V0H330.5Z" fill="white"/>
<path d="M359.5 30V0H360.5V30H359.5ZM330.5 0V30H329.5V0H330.5Z" fill="url(#paint35_linear_10150_5194)" fill-opacity="0.1"/>
</g>
<defs>
<linearGradient id="paint0_linear_10150_5194" x1="6.0703" y1="66.0703" x2="30" y2="89.9999" gradientUnits="userSpaceOnUse">
<stop stop-opacity="0"/>
<stop offset="1" stop-color="white"/>
</linearGradient>
<linearGradient id="paint1_linear_10150_5194" x1="36.0703" y1="66.0703" x2="60" y2="89.9999" gradientUnits="userSpaceOnUse">
<stop stop-opacity="0"/>
<stop offset="1" stop-color="white"/>
</linearGradient>
<linearGradient id="paint2_linear_10150_5194" x1="66.0703" y1="66.0703" x2="90" y2="89.9999" gradientUnits="userSpaceOnUse">
<stop stop-opacity="0"/>
<stop offset="1" stop-color="white"/>
</linearGradient>
<linearGradient id="paint3_linear_10150_5194" x1="96.0703" y1="66.0703" x2="120" y2="89.9999" gradientUnits="userSpaceOnUse">
<stop stop-opacity="0"/>
<stop offset="1" stop-color="white"/>
</linearGradient>
<linearGradient id="paint4_linear_10150_5194" x1="126.068" y1="66.0703" x2="149.998" y2="89.9999" gradientUnits="userSpaceOnUse">
<stop stop-opacity="0"/>
<stop offset="1" stop-color="white"/>
</linearGradient>
<linearGradient id="paint5_linear_10150_5194" x1="156.07" y1="66.0703" x2="180" y2="89.9999" gradientUnits="userSpaceOnUse">
<stop stop-opacity="0"/>
<stop offset="1" stop-color="white"/>
</linearGradient>
<linearGradient id="paint6_linear_10150_5194" x1="186.07" y1="66.0703" x2="210" y2="89.9999" gradientUnits="userSpaceOnUse">
<stop stop-opacity="0"/>
<stop offset="1" stop-color="white"/>
</linearGradient>
<linearGradient id="paint7_linear_10150_5194" x1="216.068" y1="66.0703" x2="239.998" y2="89.9999" gradientUnits="userSpaceOnUse">
<stop stop-opacity="0"/>
<stop offset="1" stop-color="white"/>
</linearGradient>
<linearGradient id="paint8_linear_10150_5194" x1="246.07" y1="66.0703" x2="270" y2="89.9999" gradientUnits="userSpaceOnUse">
<stop stop-opacity="0"/>
<stop offset="1" stop-color="white"/>
</linearGradient>
<linearGradient id="paint9_linear_10150_5194" x1="276.07" y1="66.0703" x2="300" y2="89.9999" gradientUnits="userSpaceOnUse">
<stop stop-opacity="0"/>
<stop offset="1" stop-color="white"/>
</linearGradient>
<linearGradient id="paint10_linear_10150_5194" x1="306.068" y1="66.0703" x2="329.998" y2="89.9999" gradientUnits="userSpaceOnUse">
<stop stop-opacity="0"/>
<stop offset="1" stop-color="white"/>
</linearGradient>
<linearGradient id="paint11_linear_10150_5194" x1="336.07" y1="66.0703" x2="360" y2="89.9999" gradientUnits="userSpaceOnUse">
<stop stop-opacity="0"/>
<stop offset="1" stop-color="white"/>
</linearGradient>
<linearGradient id="paint12_linear_10150_5194" x1="6.0703" y1="36.0703" x2="30" y2="59.9999" gradientUnits="userSpaceOnUse">
<stop stop-opacity="0"/>
<stop offset="1" stop-color="white"/>
</linearGradient>
<linearGradient id="paint13_linear_10150_5194" x1="6.0703" y1="6.07031" x2="30" y2="29.9999" gradientUnits="userSpaceOnUse">
<stop stop-opacity="0"/>
<stop offset="1" stop-color="white"/>
</linearGradient>
<linearGradient id="paint14_linear_10150_5194" x1="6.0703" y1="23.9297" x2="30" y2="8.66253e-05" gradientUnits="userSpaceOnUse">
<stop stop-opacity="0"/>
<stop offset="1" stop-color="white"/>
</linearGradient>
<linearGradient id="paint15_linear_10150_5194" x1="36.0703" y1="6.07031" x2="60" y2="29.9999" gradientUnits="userSpaceOnUse">
<stop stop-opacity="0"/>
<stop offset="1" stop-color="white"/>
</linearGradient>
<linearGradient id="paint16_linear_10150_5194" x1="6.0703" y1="23.9297" x2="30" y2="8.66253e-05" gradientUnits="userSpaceOnUse">
<stop stop-opacity="0"/>
<stop offset="1" stop-color="white"/>
</linearGradient>
<linearGradient id="paint17_linear_10150_5194" x1="66.0703" y1="6.07031" x2="90" y2="29.9999" gradientUnits="userSpaceOnUse">
<stop stop-opacity="0"/>
<stop offset="1" stop-color="white"/>
</linearGradient>
<linearGradient id="paint18_linear_10150_5194" x1="6.0703" y1="23.9297" x2="30" y2="8.66253e-05" gradientUnits="userSpaceOnUse">
<stop stop-opacity="0"/>
<stop offset="1" stop-color="white"/>
</linearGradient>
<linearGradient id="paint19_linear_10150_5194" x1="96.0703" y1="6.07031" x2="120" y2="29.9999" gradientUnits="userSpaceOnUse">
<stop stop-opacity="0"/>
<stop offset="1" stop-color="white"/>
</linearGradient>
<linearGradient id="paint20_linear_10150_5194" x1="6.0703" y1="23.9297" x2="30" y2="8.66253e-05" gradientUnits="userSpaceOnUse">
<stop stop-opacity="0"/>
<stop offset="1" stop-color="white"/>
</linearGradient>
<linearGradient id="paint21_linear_10150_5194" x1="126.068" y1="6.07031" x2="149.998" y2="29.9999" gradientUnits="userSpaceOnUse">
<stop stop-opacity="0"/>
<stop offset="1" stop-color="white"/>
</linearGradient>
<linearGradient id="paint22_linear_10150_5194" x1="6.0703" y1="23.9297" x2="30" y2="8.66253e-05" gradientUnits="userSpaceOnUse">
<stop stop-opacity="0"/>
<stop offset="1" stop-color="white"/>
</linearGradient>
<linearGradient id="paint23_linear_10150_5194" x1="156.07" y1="6.07031" x2="180" y2="29.9999" gradientUnits="userSpaceOnUse">
<stop stop-opacity="0"/>
<stop offset="1" stop-color="white"/>
</linearGradient>
<linearGradient id="paint24_linear_10150_5194" x1="6.0703" y1="23.9297" x2="30" y2="8.66253e-05" gradientUnits="userSpaceOnUse">
<stop stop-opacity="0"/>
<stop offset="1" stop-color="white"/>
</linearGradient>
<linearGradient id="paint25_linear_10150_5194" x1="186.07" y1="6.07031" x2="210" y2="29.9999" gradientUnits="userSpaceOnUse">
<stop stop-opacity="0"/>
<stop offset="1" stop-color="white"/>
</linearGradient>
<linearGradient id="paint26_linear_10150_5194" x1="6.0703" y1="23.9297" x2="30" y2="8.66253e-05" gradientUnits="userSpaceOnUse">
<stop stop-opacity="0"/>
<stop offset="1" stop-color="white"/>
</linearGradient>
<linearGradient id="paint27_linear_10150_5194" x1="216.068" y1="6.07031" x2="239.998" y2="29.9999" gradientUnits="userSpaceOnUse">
<stop stop-opacity="0"/>
<stop offset="1" stop-color="white"/>
</linearGradient>
<linearGradient id="paint28_linear_10150_5194" x1="6.0703" y1="23.9297" x2="30" y2="8.66253e-05" gradientUnits="userSpaceOnUse">
<stop stop-opacity="0"/>
<stop offset="1" stop-color="white"/>
</linearGradient>
<linearGradient id="paint29_linear_10150_5194" x1="246.07" y1="6.07031" x2="270" y2="29.9999" gradientUnits="userSpaceOnUse">
<stop stop-opacity="0"/>
<stop offset="1" stop-color="white"/>
</linearGradient>
<linearGradient id="paint30_linear_10150_5194" x1="6.0703" y1="23.9297" x2="30" y2="8.66253e-05" gradientUnits="userSpaceOnUse">
<stop stop-opacity="0"/>
<stop offset="1" stop-color="white"/>
</linearGradient>
<linearGradient id="paint31_linear_10150_5194" x1="276.07" y1="6.07031" x2="300" y2="29.9999" gradientUnits="userSpaceOnUse">
<stop stop-opacity="0"/>
<stop offset="1" stop-color="white"/>
</linearGradient>
<linearGradient id="paint32_linear_10150_5194" x1="6.0703" y1="23.9297" x2="30" y2="8.66253e-05" gradientUnits="userSpaceOnUse">
<stop stop-opacity="0"/>
<stop offset="1" stop-color="white"/>
</linearGradient>
<linearGradient id="paint33_linear_10150_5194" x1="306.068" y1="6.07031" x2="329.998" y2="29.9999" gradientUnits="userSpaceOnUse">
<stop stop-opacity="0"/>
<stop offset="1" stop-color="white"/>
</linearGradient>
<linearGradient id="paint34_linear_10150_5194" x1="6.0703" y1="23.9297" x2="30" y2="8.66253e-05" gradientUnits="userSpaceOnUse">
<stop stop-opacity="0"/>
<stop offset="1" stop-color="white"/>
</linearGradient>
<linearGradient id="paint35_linear_10150_5194" x1="336.07" y1="6.07031" x2="360" y2="29.9999" gradientUnits="userSpaceOnUse">
<stop stop-opacity="0"/>
<stop offset="1" stop-color="white"/>
</linearGradient>
</defs>
</svg>
