<svg width="144" height="50" viewBox="0 0 144 50" fill="none" xmlns="http://www.w3.org/2000/svg">
<rect x="15" width="114" height="50" fill="white" fill-opacity="0.05"/>
<path d="M25.8609 31.16C22.5009 31.16 20.2769 28.984 20.2769 25.64C20.2769 22.296 22.5009 20.12 25.8609 20.12C29.2529 20.12 31.4609 22.296 31.4609 25.64C31.4609 28.984 29.2529 31.16 25.8609 31.16ZM25.8609 29.496C28.4049 29.496 29.6369 28.312 29.6369 25.64C29.6369 22.968 28.4049 21.768 25.8609 21.768C23.3169 21.768 22.1009 22.968 22.1009 25.64C22.1009 28.312 23.3169 29.496 25.8609 29.496ZM34.4655 33.72H32.7375V23.048H34.3215V25.256H34.4655C34.7855 23.784 35.9055 22.888 37.7775 22.888C40.2415 22.888 41.6335 24.568 41.6335 27.032C41.6335 29.496 40.2735 31.16 37.7935 31.16C36.0015 31.16 34.8495 30.216 34.5295 28.76H34.4655V33.72ZM34.4655 27.16C34.4655 28.792 35.5055 29.592 37.2015 29.592C38.9135 29.592 39.9055 28.936 39.9055 27.032C39.9055 25.112 38.8975 24.472 37.2335 24.472C35.4575 24.472 34.4655 25.304 34.4655 27.016V27.16ZM46.8313 31.16C44.2233 31.16 42.5113 29.688 42.5113 27.032C42.5113 24.552 44.2073 22.888 46.7993 22.888C49.2633 22.888 50.9433 24.248 50.9433 26.664C50.9433 26.952 50.9273 27.176 50.8793 27.416H44.1273C44.1913 28.952 44.9433 29.768 46.7833 29.768C48.4473 29.768 49.1353 29.224 49.1353 28.28V28.152H50.8633V28.296C50.8633 29.992 49.1993 31.16 46.8313 31.16ZM46.7673 24.248C45.0073 24.248 44.2393 25.032 44.1432 26.456H49.3113V26.424C49.3113 24.952 48.4633 24.248 46.7673 24.248ZM53.9655 31H52.2375V23.048H53.8215V25.512H53.9335C54.1735 24.168 55.2295 22.888 57.2455 22.888C59.4535 22.888 60.5415 24.376 60.5415 26.216V31H58.8135V26.68C58.8135 25.192 58.1415 24.44 56.4935 24.44C54.7495 24.44 53.9655 25.336 53.9655 27.064V31ZM69.3116 31.16C66.1116 31.16 64.4796 29.752 64.4796 27.496V27.4H66.2076V27.656C66.2076 28.936 66.9596 29.576 69.3116 29.576C71.3596 29.576 72.0796 29.128 72.0796 28.12C72.0796 27.192 71.5356 26.84 70.1756 26.584L67.5516 26.152C65.7436 25.832 64.4636 25 64.4636 23.24C64.4636 21.688 65.7436 20.12 69.0716 20.12C72.2076 20.12 73.6316 21.688 73.6316 23.784V23.88H71.9196V23.672C71.9196 22.36 71.1356 21.704 68.9116 21.704C66.9596 21.704 66.1916 22.184 66.1916 23.144C66.1916 24.072 66.7356 24.376 67.9996 24.648L70.6076 25.096C72.7516 25.48 73.8076 26.456 73.8076 28.024C73.8076 29.656 72.4796 31.16 69.3116 31.16ZM76.7624 31H75.0344V20.28H76.7624V25.48H76.8584C77.1304 24.136 78.1064 22.888 80.1384 22.888C82.3304 22.888 83.4024 24.328 83.4024 26.264V31H81.6904V26.68C81.6904 25.08 80.9704 24.44 79.3224 24.44C77.4344 24.44 76.7624 25.464 76.7624 27.144V31ZM89.0203 31.16C86.3803 31.16 84.6043 29.48 84.6043 27.032C84.6043 24.552 86.3803 22.888 89.0203 22.888C91.6763 22.888 93.4523 24.552 93.4523 27.032C93.4523 29.48 91.6763 31.16 89.0203 31.16ZM89.0203 29.624C90.9563 29.624 91.7563 28.712 91.7563 27.032C91.7563 25.336 90.9563 24.408 89.0203 24.408C87.1003 24.408 86.3003 25.336 86.3003 27.032C86.3003 28.712 87.1003 29.624 89.0203 29.624ZM96.4343 33.72H94.7063V23.048H96.2903V25.256H96.4343C96.7543 23.784 97.8743 22.888 99.7463 22.888C102.21 22.888 103.602 24.568 103.602 27.032C103.602 29.496 102.242 31.16 99.7623 31.16C97.9703 31.16 96.8183 30.216 96.4983 28.76H96.4343V33.72ZM96.4343 27.16C96.4343 28.792 97.4743 29.592 99.1703 29.592C100.882 29.592 101.874 28.936 101.874 27.032C101.874 25.112 100.866 24.472 99.2023 24.472C97.4263 24.472 96.4343 25.304 96.4343 27.016V27.16Z" fill="white"/>
<path d="M124.74 22.1711C124.158 21.5896 122.72 20.1509 121.824 19.2574C121.663 19.0909 121.439 19 121.209 19H113.309C113.139 19 113 19.1393 113 19.3089V20.3872C113 20.5689 113.148 20.7173 113.33 20.7173H121.566C121.727 20.7173 121.805 20.9112 121.693 21.0232L113.185 29.531C113.067 29.6492 113 29.8067 113 29.9732V30.6668C113 30.8486 113.148 30.997 113.33 30.997H113.942C114.163 30.997 114.375 30.9091 114.529 30.7547L122.977 22.3044C123.089 22.1923 123.283 22.2711 123.283 22.4316V30.7032C123.283 30.8667 123.416 31 123.58 31H124.691C124.861 31 125 30.8637 125 30.6941V22.7951C125 22.5618 124.909 22.3377 124.743 22.1711H124.74Z" fill="white"/>
<path d="M0 12.0711V45C0 47.7614 2.23858 50 5 50H15V0H12.0711C10.745 0 9.47322 0.526783 8.53554 1.46446L1.46447 8.53553C0.526784 9.47322 0 10.745 0 12.0711Z" fill="white" fill-opacity="0.05"/>
<path d="M144 37.9289L144 5C144 2.23857 141.761 -1.95703e-07 139 -4.37114e-07L129 -1.31134e-06L129 50L131.929 50C133.255 50 134.527 49.4732 135.464 48.5355L142.536 41.4645C143.473 40.5268 144 39.255 144 37.9289Z" fill="white" fill-opacity="0.05"/>
</svg>
