<svg width="50" height="50" viewBox="0 0 50 50" fill="none" xmlns="http://www.w3.org/2000/svg">
<path d="M25 2.5C27.9547 2.5 30.8805 3.08198 33.6104 4.21271C36.3402 5.34344 38.8206 7.00078 40.9099 9.0901C42.9992 11.1794 44.6566 13.6598 45.7873 16.3896C46.918 19.1194 47.5 22.0453 47.5 25C47.5 27.9547 46.918 30.8806 45.7873 33.6104C44.6566 36.3402 42.9992 38.8206 40.9099 40.9099C38.8206 42.9992 36.3402 44.6566 33.6104 45.7873C30.8805 46.918 27.9547 47.5 25 47.5C22.0453 47.5 19.1194 46.918 16.3896 45.7873C13.6598 44.6566 11.1794 42.9992 9.0901 40.9099C7.00078 38.8206 5.34344 36.3402 4.21271 33.6104C3.08198 30.8805 2.5 27.9547 2.5 25C2.5 22.0453 3.08198 19.1194 4.21271 16.3896C5.34344 13.6598 7.00078 11.1794 9.0901 9.09009C11.1794 7.00078 13.6598 5.34344 16.3896 4.21271C19.1195 3.08198 22.0453 2.5 25 2.5L25 2.5Z" stroke="black" stroke-width="5"/>
<path d="M25 2.5C29.4501 2.5 33.8002 3.8196 37.5003 6.29194C41.2004 8.76427 44.0843 12.2783 45.7873 16.3896C47.4903 20.501 47.9358 25.025 47.0677 29.3896C46.1995 33.7541 44.0566 37.7632 40.9099 40.9099C37.7632 44.0566 33.7541 46.1995 29.3895 47.0677C25.0249 47.9358 20.5009 47.4903 16.3896 45.7873C12.2782 44.0843 8.76423 41.2004 6.29191 37.5003C3.81958 33.8002 2.49999 29.45 2.5 24.9999" stroke="url(#paint0_linear_10150_4819)" stroke-width="5" stroke-linecap="round" stroke-linejoin="round"/>
<defs>
<linearGradient id="paint0_linear_10150_4819" x1="46.0993" y1="25" x2="46.0993" y2="3.86364" gradientUnits="userSpaceOnUse">
<stop stop-color="#FF893C"/>
<stop offset="1" stop-color="#FFFFB2"/>
</linearGradient>
</defs>
</svg>
