<svg width="149" height="50" viewBox="0 0 149 50" fill="none" xmlns="http://www.w3.org/2000/svg">
<rect x="15" width="119" height="50" fill="white"/>
<path d="M23.6289 31.16C20.3809 31.16 19.1169 29.448 19.1169 26.92V26.424H20.9409V26.936C20.9409 28.696 21.5329 29.496 23.6289 29.496C25.7249 29.496 26.3489 28.712 26.3489 27.016V20.28H28.1569V27C28.1569 29.464 26.9089 31.16 23.6289 31.16ZM33.7546 31.16C31.1146 31.16 29.3386 29.48 29.3386 27.032C29.3386 24.552 31.1146 22.888 33.7546 22.888C36.4106 22.888 38.1866 24.552 38.1866 27.032C38.1866 29.48 36.4106 31.16 33.7546 31.16ZM33.7546 29.624C35.6906 29.624 36.4906 28.712 36.4906 27.032C36.4906 25.336 35.6906 24.408 33.7546 24.408C31.8346 24.408 31.0346 25.336 31.0346 27.032C31.0346 28.712 31.8346 29.624 33.7546 29.624ZM41.1686 22.12H39.4406V20.28H41.1686V22.12ZM41.1686 31H39.4406V23.048H41.1686V31ZM44.4968 31H42.7688V23.048H44.3528V25.512H44.4648C44.7048 24.168 45.7608 22.888 47.7768 22.888C49.9848 22.888 51.0728 24.376 51.0728 26.216V31H49.3448V26.68C49.3448 25.192 48.6728 24.44 47.0248 24.44C45.2808 24.44 44.4968 25.336 44.4968 27.064V31ZM59.1549 31H57.0109L54.6269 23.048H56.4189L57.7469 27.56L58.1149 29.608H58.2429L58.8349 27.4L60.4989 23.048H62.7069L64.3869 27.4L64.9789 29.608H65.1069L65.4749 27.56L66.8029 23.048H68.5629L66.1469 31H64.0029L62.2589 26.424L61.6509 24.472H61.5229L60.9149 26.424L59.1549 31ZM71.7766 31.16C70.1286 31.16 69.0886 30.392 69.0886 29.08C69.0886 27.848 70.0806 27.208 71.6486 27.032L75.2646 26.648V26.184C75.2646 24.872 74.6886 24.408 73.1686 24.408C71.6966 24.408 70.9766 24.888 70.9766 26.056V26.12H69.2646V26.056C69.2646 24.248 70.7686 22.888 73.2966 22.888C75.8246 22.888 76.9606 24.264 76.9606 26.168V31H75.3766V29.016H75.2646C74.8486 30.36 73.5846 31.16 71.7766 31.16ZM70.8166 28.968C70.8166 29.608 71.2486 29.912 72.2406 29.912C74.0486 29.912 75.2646 29.24 75.2646 27.672L72.1446 28.024C71.2486 28.136 70.8166 28.344 70.8166 28.968ZM80.2311 22.12H78.5031V20.28H80.2311V22.12ZM80.2311 31H78.5031V23.048H80.2311V31ZM87.0473 31H85.2233C83.5113 31 82.4553 30.248 82.4553 28.312V24.488H81.1113V23.048H82.4553V21.304H84.1673V23.048H87.0473V24.488H84.1673V28.216C84.1673 29.192 84.6153 29.448 85.6073 29.448H87.0473V31ZM89.8561 31H88.1281V20.28H89.8561V31ZM93.1843 22.12H91.4563V20.28H93.1843V22.12ZM93.1843 31H91.4563V23.048H93.1843V31ZM98.5444 31.16C95.9844 31.16 94.5284 30.152 94.5284 28.312V28.264H96.2564V28.392C96.2564 29.432 96.8804 29.768 98.5444 29.768C100.096 29.768 100.56 29.448 100.56 28.744C100.56 28.088 100.176 27.88 99.0404 27.72L96.8644 27.432C95.3604 27.24 94.4484 26.6 94.4484 25.272C94.4484 23.88 95.7124 22.888 98.1604 22.888C100.592 22.888 102.064 23.864 102.064 25.752V25.8H100.352V25.704C100.352 24.76 99.8724 24.264 98.1124 24.264C96.6564 24.264 96.1444 24.584 96.1444 25.336C96.1444 25.96 96.4644 26.184 97.6644 26.344L99.5044 26.6C101.392 26.84 102.256 27.48 102.256 28.792C102.256 30.28 100.784 31.16 98.5444 31.16ZM108.719 31H106.895C105.183 31 104.127 30.248 104.127 28.312V24.488H102.783V23.048H104.127V21.304H105.839V23.048H108.719V24.488H105.839V28.216C105.839 29.192 106.287 29.448 107.279 29.448H108.719V31Z" fill="black"/>
<path d="M129.74 22.1711C129.158 21.5896 127.72 20.1509 126.824 19.2574C126.663 19.0909 126.439 19 126.209 19H118.309C118.139 19 118 19.1393 118 19.3089V20.3872C118 20.5689 118.148 20.7173 118.33 20.7173H126.566C126.727 20.7173 126.805 20.9112 126.693 21.0232L118.185 29.531C118.067 29.6492 118 29.8067 118 29.9732V30.6668C118 30.8486 118.148 30.997 118.33 30.997H118.942C119.163 30.997 119.375 30.9091 119.529 30.7547L127.977 22.3044C128.089 22.1923 128.283 22.2711 128.283 22.4316V30.7032C128.283 30.8667 128.416 31 128.58 31H129.691C129.861 31 130 30.8637 130 30.6941V22.7951C130 22.5618 129.909 22.3377 129.743 22.1711H129.74Z" fill="black"/>
<path d="M0 12.0711V45C0 47.7614 2.23858 50 5 50H15V0H12.0711C10.745 0 9.47322 0.526783 8.53554 1.46446L1.46447 8.53553C0.526784 9.47322 0 10.745 0 12.0711Z" fill="white"/>
<path d="M149 37.9289L149 5C149 2.23857 146.761 -1.95703e-07 144 -4.37114e-07L134 -1.31134e-06L134 50L136.929 50C138.255 50 139.527 49.4732 140.464 48.5355L147.536 41.4645C148.473 40.5268 149 39.255 149 37.9289Z" fill="white"/>
</svg>
